<?xml version="1.0" standalone="no"?>
<!DOCTYPE svg PUBLIC "-//W3C//DTD SVG 20010904//EN"
 "http://www.w3.org/TR/2001/REC-SVG-20010904/DTD/svg10.dtd">
<svg version="1.0" xmlns="http://www.w3.org/2000/svg"
 width="300px" height="100px" viewBox="0 0 500.000000 500.000000"
 preserveAspectRatio="xMidYMid meet">

<g transform="translate(0.000000,500.000000) scale(0.100000,-0.100000)"
fill="#000000" stroke="none">
<path d="M0 2500 l0 -2500 2500 0 2500 0 0 2500 0 2500 -2500 0 -2500 0 0
-2500z m2390 1605 c0 -167 -2 -195 -15 -195 -11 0 -15 11 -15 35 0 43 -23 101
-53 133 -48 52 -48 52 -467 52 l-390 0 0 -540 0 -540 486 0 485 0 -3 158 c-3
154 -4 160 -31 200 -40 61 -95 94 -170 101 -49 5 -62 10 -65 24 -4 18 12 19
385 15 360 -4 394 -6 468 -26 197 -54 343 -159 410 -296 44 -90 59 -168 51
-272 -14 -186 -91 -323 -226 -402 l-45 -27 45 -8 c146 -27 293 -89 395 -165
l50 -37 -146 -3 -146 -3 -74 40 c-125 67 -317 111 -486 111 -55 0 -63 2 -63
19 0 16 9 19 63 23 118 7 254 93 310 195 42 78 58 155 58 278 1 183 -51 299
-167 377 -78 53 -213 87 -341 88 l-43 0 0 -180 c0 -99 4 -180 8 -180 29 0 72
87 72 145 0 38 3 45 20 45 20 0 20 -7 20 -275 0 -268 0 -275 -20 -275 -17 0
-20 7 -20 44 0 25 -5 57 -11 73 -11 30 -47 73 -61 73 -4 0 -8 -135 -8 -300 l0
-300 -115 0 -115 0 0 315 0 315 -485 0 -485 0 0 -315 0 -315 -115 0 -115 0 0
848 c0 472 -5 864 -10 886 -19 85 -95 146 -192 155 -48 5 -64 10 -66 23 -3 15
42 17 605 21 573 4 614 5 707 25 54 12 101 24 104 27 18 18 22 -15 22 -190z
m-1231 -1881 c87 -18 70 -124 -20 -124 l-39 0 0 58 c0 75 2 77 59 66z m241
-59 c0 -51 -3 -65 -15 -65 -12 0 -15 13 -15 58 0 32 3 62 7 65 17 17 23 2 23
-58z m234 49 c23 -22 20 -26 -14 -19 -37 8 -40 -7 -5 -23 31 -14 41 -37 25
-57 -16 -19 -64 -19 -80 0 -18 21 -3 32 22 16 13 -8 24 -9 30 -3 7 7 0 15 -18
24 -35 16 -43 47 -18 65 23 17 39 16 58 -3z m256 1 c0 -8 -9 -15 -20 -15 -17
0 -20 -7 -20 -50 0 -27 -4 -50 -10 -50 -5 0 -10 23 -10 50 0 43 -3 50 -20 50
-11 0 -20 7 -20 15 0 11 12 15 50 15 38 0 50 -4 50 -15z m214 5 c28 -10 34
-38 14 -59 -11 -10 -9 -16 10 -31 12 -10 22 -21 22 -24 0 -14 -36 -4 -57 16
l-23 21 0 -21 c0 -13 -6 -22 -15 -22 -12 0 -15 14 -15 65 0 71 7 77 64 55z
m214 -58 c2 -51 0 -62 -13 -62 -12 0 -15 13 -15 66 0 48 3 65 13 62 7 -3 13
-28 15 -66z m227 58 c20 -7 25 -16 23 -38 -1 -15 1 -33 5 -39 12 -19 -22 -43
-59 -43 l-34 0 0 65 c0 71 7 77 65 55z m213 -41 c6 -78 52 -71 52 8 0 56 23
55 28 -1 4 -50 -20 -86 -56 -86 -41 0 -52 17 -52 78 0 67 23 68 28 1z m270
-17 c2 -51 0 -62 -13 -62 -12 0 -15 13 -15 66 0 48 3 65 13 62 7 -3 13 -28 15
-66z m229 57 c76 -29 48 -119 -37 -119 l-40 0 0 58 c0 32 3 62 7 65 9 10 38 8
70 -4z m291 -5 c46 -32 18 -114 -39 -114 -37 0 -59 24 -59 65 0 35 28 65 60
65 9 0 26 -7 38 -16z m246 6 c26 -10 36 -43 16 -55 -17 -11 -11 -37 10 -42 28
-7 25 -23 -4 -23 -13 0 -30 10 -39 23 l-16 22 0 -22 c-1 -14 -7 -23 -16 -23
-12 0 -15 14 -15 65 0 71 7 77 64 55z m266 -42 c12 -29 24 -59 27 -65 3 -7 -2
-13 -10 -13 -8 0 -17 7 -21 15 -7 20 -46 19 -61 -1 -6 -9 -17 -15 -22 -13 -13
5 41 129 55 129 5 0 19 -24 32 -52z m-2605 -195 c20 -86 105 -151 205 -160 49
-5 60 -9 58 -22 -3 -14 -44 -16 -386 -19 -377 -2 -382 -2 -382 18 0 17 7 20
43 20 89 0 194 80 212 161 l7 29 118 0 118 0 7 -27z m1195 -382 l0 -408 46 -7
c26 -3 120 -6 209 -6 129 0 178 4 241 20 223 56 384 201 451 405 21 66 26 100
27 195 1 63 -3 136 -7 163 l-8 47 129 0 130 0 13 -69 c16 -94 7 -267 -20 -351
-61 -193 -235 -366 -455 -454 -148 -59 -247 -78 -440 -83 -215 -7 -322 6 -466
53 -344 114 -524 351 -547 717 -6 104 -6 107 15 107 17 0 22 -8 27 -37 33
-199 107 -368 206 -477 45 -50 159 -135 202 -152 16 -6 17 24 17 370 l0 376
115 0 115 0 0 -409z"/>
<path d="M1130 2165 c0 -30 3 -35 24 -35 16 0 27 7 31 20 8 25 -10 50 -36 50
-15 0 -19 -7 -19 -35z"/>
<path d="M2070 2185 c0 -8 7 -15 15 -15 8 0 15 7 15 15 0 8 -7 15 -15 15 -8 0
-15 -7 -15 -15z"/>
<path d="M2510 2190 c0 -5 7 -10 15 -10 8 0 15 5 15 10 0 6 -7 10 -15 10 -8 0
-15 -4 -15 -10z"/>
<path d="M2510 2135 c0 -10 7 -15 18 -13 21 4 19 22 -2 26 -10 2 -16 -3 -16
-13z"/>
<path d="M3210 2166 c0 -32 3 -36 25 -36 47 0 44 61 -4 68 -18 3 -21 -1 -21
-32z"/>
<path d="M3487 2194 c-14 -14 -7 -62 9 -68 24 -9 45 13 42 43 -3 26 -35 41
-51 25z"/>
<path d="M3760 2184 c0 -9 5 -14 12 -12 18 6 21 28 4 28 -9 0 -16 -7 -16 -16z"/>
<path d="M4016 2165 c-3 -9 0 -15 9 -15 16 0 20 16 6 24 -5 3 -11 -1 -15 -9z"/>
</g>
</svg>
